# xmcd CD database file
#
# Track frame offsets:
#	150
#	9419
#	15172
#	20366
#	26826
#	32085
#	37723
#	46055
#	51176
#	56842
#	61835
#	69762
#	75068
#	78689
#
# Disc length: 1154 seconds
#
# Revision: 0
# Processed by: cddbd v1.5.2PL0 Copyright (c) Steve Scherf et al.
# Submitted via: CDex 1.51
#
DISCID=9204800e
DTITLE=Yamaha Music School - Primary 2
DYEAR=2013
DGENRE=Salsa
TTITLE0=Squirels' Lillaby
TTITLE1=Space Patrol
TTITLE2=Honeybee March
TTITLE3=Mole does the Housework
TTITLE4=Hush a buy
TTITLE5=Our King goes for a Walk
TTITLE6=Party in the Sky
TTITLE7=Windmill in a Breeze
TTITLE8=Sweet Dance
TTITLE9=Animal's Mambo
TTITLE10=Dance of a Clowns
TTITLE11=Love Greetings
TTITLE12=Love Greetings 2
TTITLE13=Love Greetings 3
EXTD=YEAR: 2013
EXTT0=
EXTT1=
EXTT2=
EXTT3=
EXTT4=
EXTT5=
EXTT6=
EXTT7=
EXTT8=
EXTT9=
EXTT10=
EXTT11=
EXTT12=
EXTT13=
PLAYORDER=
